<svg width="9" height="16" viewBox="0 0 9 16" fill="none" xmlns="http://www.w3.org/2000/svg">
<path d="M0.296467 1.95098C-0.141135 1.50467 -0.0737963 0.781048 0.363805 0.334735C0.801407 -0.111578 1.5109 -0.111578 1.9485 0.334735L8.6718 7.19187C9.09601 7.62454 9.11086 8.32121 8.70547 8.77225L1.9485 15.6294C1.53032 16.0947 0.820003 16.1261 0.363805 15.6996C-0.092392 15.2731 -0.121714 14.5502 0.296467 14.0849L6.32845 8.03437L0.296467 1.95098Z" fill="white"/>
<path d="M0.296467 1.95098C-0.141135 1.50467 -0.0737963 0.781048 0.363805 0.334735C0.801407 -0.111578 1.5109 -0.111578 1.9485 0.334735L8.6718 7.19187C9.09601 7.62454 9.11086 8.32121 8.70547 8.77225L1.9485 15.6294C1.53032 16.0947 0.820003 16.1261 0.363805 15.6996C-0.092392 15.2731 -0.121714 14.5502 0.296467 14.0849L6.32845 8.03437L0.296467 1.95098Z" fill="#4E5D78"/>
</svg>
